<svg id="Capa_1" enable-background="new 0 0 512 512" height="512" viewBox="0 0 512 512" width="512" xmlns="http://www.w3.org/2000/svg"><g><path d="m427.748 475.826 7.207-.129s14.937-2.381 15.067-2.381 22.225-9.727 22.225-9.727l20.089-27.131 9.121-32.479-7.62-32.479-22.167-25.789-25.4-10.391-9.525-1.982h-8.996c-34.192 5.717-60.256 35.429-60.256 71.244-.001 35.816 26.063 65.527 60.255 71.244z" fill="#ffab56"/><path d="m439.746 332.328c-4.09 0-8.094.357-11.998 1.01 34.192 5.717 60.256 35.429 60.256 71.244s-26.065 65.527-60.256 71.244c3.904.653 7.908 1.01 11.998 1.01 39.905 0 72.254-32.349 72.254-72.254 0-39.904-32.349-72.254-72.254-72.254z" fill="#ff982a"/><path d="m448.98 396.869c-5.893-2.083-12.4-4.591-15.975-7.396-.817-.641-1.156-2.313-.826-4.068.175-.933.993-4.053 4.114-4.993 8.25-2.485 15.372-.057 15.61.027 4.003 1.48 8.468-.537 9.988-4.54 1.526-4.021-.496-8.519-4.517-10.047-.69-.262-4.57-1.644-10.245-2.042v-.476c0-4.302-3.487-7.789-7.789-7.789s-7.789 3.487-7.789 7.789v2.246c-7.538 2.376-13.152 8.838-14.68 16.94-1.427 7.575 1.071 14.936 6.52 19.21 5.334 4.184 12.955 7.195 20.398 9.826 5.638 1.993 5.805 6.301 5.403 8.693-.676 4.026-4.065 8.378-9.905 8.417-6.19.035-7.969-.237-12.643-3.294-3.6-2.354-8.428-1.347-10.782 2.255-2.355 3.6-1.346 8.427 2.255 10.782 5.108 3.341 8.958 4.832 13.434 5.448v1.973c0 4.302 3.487 7.789 7.789 7.789s7.789-3.487 7.789-7.789v-2.791c9.757-3.098 15.997-11.708 17.426-20.206 1.942-11.551-4.318-21.984-15.575-25.964z" fill="#ffe270"/><path d="m419.913 350.384 7.207-.129s14.937-2.381 15.067-2.381 22.225-9.727 22.225-9.727l20.089-27.131 9.121-32.479-7.62-32.479-22.167-25.789-25.4-10.391-9.525-1.982h-8.996c-34.192 5.717-60.256 35.429-60.256 71.244-.001 35.815 26.064 65.527 60.255 71.244z" fill="#ffe270"/><path d="m431.911 206.886c-4.09 0-8.094.357-11.998 1.01 34.192 5.717 60.256 35.429 60.256 71.244s-26.065 65.527-60.256 71.244c3.904.653 7.908 1.01 11.998 1.01 39.905 0 72.254-32.349 72.254-72.254s-32.349-72.254-72.254-72.254z" fill="#ffd250"/><path d="m238.72 425.206h-30.327c-7.016 0-12.703-5.687-12.703-12.703v-73.5h55.733v73.5c0 7.016-5.687 12.703-12.703 12.703z" fill="#ff7383"/><path d="m195.69 396.417c17.805 2.925 36.478 4.486 55.729 4.486h.005v-61.9h-55.734z" fill="#ff546a"/><path d="m322.5 428.063 7.207-.129s14.937-2.381 15.067-2.381 22.225-9.727 22.225-9.727l20.089-27.131 9.121-32.479-7.62-32.479-22.167-25.789-25.4-10.391-9.525-1.982h-8.997c-34.192 5.717-60.256 35.429-60.256 71.244 0 35.816 26.064 65.527 60.256 71.244z" fill="#ffe270"/><path d="m334.498 284.565c-4.09 0-8.094.357-11.998 1.01 34.192 5.717 60.256 35.429 60.256 71.244s-26.065 65.527-60.256 71.244c3.904.653 7.908 1.01 11.998 1.01 39.905 0 72.254-32.349 72.254-72.254s-32.349-72.254-72.254-72.254z" fill="#ffd250"/><path d="m456.72 297.389c1.941-11.55-4.317-21.984-15.574-25.962-5.894-2.083-12.4-4.591-15.975-7.396-.817-.641-1.156-2.313-.826-4.068.175-.933.993-4.053 4.114-4.993 8.249-2.485 15.372-.056 15.61.027 4.005 1.48 8.468-.537 9.988-4.54 1.526-4.021-.496-8.519-4.517-10.047-.69-.262-4.57-1.644-10.245-2.042v-.476c0-4.302-3.487-7.789-7.789-7.789s-7.789 3.487-7.789 7.789v2.246c-7.538 2.376-13.152 8.838-14.68 16.94-1.427 7.575 1.071 14.936 6.52 19.21 5.334 4.184 12.955 7.195 20.397 9.826 5.638 1.993 5.805 6.301 5.404 8.693-.676 4.026-4.065 8.378-9.905 8.417-6.188.032-7.969-.237-12.643-3.294-3.6-2.355-8.428-1.346-10.782 2.255-2.355 3.6-1.346 8.427 2.255 10.782 5.108 3.341 8.958 4.832 13.434 5.448v1.973c0 4.302 3.487 7.789 7.789 7.789s7.789-3.487 7.789-7.789v-2.791c9.755-3.1 15.995-11.709 17.425-20.208z" fill="#ffab56"/><path d="m359.307 375.068c1.941-11.55-4.317-21.983-15.574-25.961-5.892-2.083-12.399-4.59-15.976-7.396-.817-.641-1.156-2.313-.826-4.068.175-.933.993-4.053 4.115-4.994 8.24-2.482 15.354-.06 15.608.027 4.004 1.486 8.47-.536 9.989-4.538 1.527-4.022-.495-8.52-4.516-10.048-.691-.262-4.571-1.644-10.246-2.043v-.476c0-4.302-3.487-7.789-7.789-7.789s-7.789 3.487-7.789 7.789v2.247c-7.538 2.376-13.152 8.838-14.68 16.94-1.427 7.575 1.071 14.936 6.521 19.21 5.336 4.185 12.956 7.196 20.397 9.826 5.638 1.993 5.805 6.3 5.404 8.692-.676 4.026-4.065 8.379-9.905 8.418-6.175.049-7.972-.238-12.643-3.294-3.6-2.355-8.427-1.347-10.782 2.255-2.355 3.599-1.346 8.427 2.254 10.782 5.106 3.341 8.957 4.831 13.434 5.447v1.974c0 4.302 3.487 7.789 7.789 7.789s7.789-3.487 7.789-7.789v-2.791c9.757-3.1 15.997-11.71 17.426-20.209z" fill="#ffab56"/><path d="m152.383 425.206h-30.327c-7.016 0-12.703-5.687-12.703-12.703v-73.5h55.733v73.5c0 7.016-5.688 12.703-12.703 12.703z" fill="#ff7383"/><path d="m109.353 368.198c16.668 8.849 35.423 16.168 55.733 21.623v-50.818h-55.733z" fill="#ff546a"/><path d="m113.309 127.432 15.578-9.395 5.867-2.422 12.534-15.735c-3.089-17.326-2.091-36.267 2.409-56.589 1.295-5.849-5.158-10.311-10.146-6.994-28.823 19.169-45.451 51.742-44.49 85.899z" fill="#ff7383"/><path d="m95.777 131.744 2.894 23.24 70.282-8.752c-11.588-13.727-18.617-29.255-21.665-46.353-19.1 5.853-36.669 13.394-52.227 22.317.09 3.173.319 6.358.716 9.548z" fill="#ff546a"/><path d="m256.978 382.019 5.266-13.413 12.988-43.817 7.486-29.504 21.578-8.147 26.422-7.998 5.064-29.835 9.027-21.617 51.398-2.642 14.216-10.789 9.489-19.156 6.726-12.991 4.747-21.755.005-.002c-40.155-35.479-105.787-58.608-179.973-58.608-97.284 0-179.897 39.753-209.573 95.007-4.137 7.702-12.053 12.619-20.796 12.619h-1.898c-10.576.001-19.15 8.575-19.15 19.152v46.253c0 10.577 8.574 19.151 19.151 19.151h14.279c7.496 0 14.49 3.571 19.073 9.503 35.978 46.574 111.528 78.652 198.916 78.652 1.861 0 3.715-.018 5.564-.047z" fill="#ff7383"/><g><path d="m431.386 160.355-33.909 50.009c-1.674 2.468-4.325 4.101-7.282 4.484l-53.489 6.935c-4.552.59-8.181 4.091-8.935 8.619l-6.653 39.949c-.721 4.327-4.075 7.739-8.388 8.533l-35.588 6.553c-3.168.583-5.888 2.599-7.367 5.461l-17.471 33.799c-.946 1.83-1.328 3.899-1.098 5.946l5.773 51.375c6.06-.096 12.062-.34 17.993-.733 2.088-.139 4.016-1.168 5.293-2.826s1.777-3.785 1.38-5.839l-6.759-34.976c-.318-1.648-.059-3.355.736-4.834l16.361-30.443c1.233-2.294 3.434-3.912 5.992-4.404l37.313-7.177c3.031-.583 5.366-3.012 5.83-6.064l6.5-42.808 60.912-8.729c1.974-.283 3.747-1.363 4.904-2.987l32.904-46.209c1.945-2.731 1.778-6.441-.409-8.982-4.378-5.083-9.246-9.971-14.543-14.652z" fill="#ff546a"/></g><g><path d="m121.098 198.928c-4.302 0-7.789-3.487-7.789-7.789v-11.19c0-4.302 3.487-7.789 7.789-7.789s7.789 3.487 7.789 7.789v11.19c0 4.302-3.487 7.789-7.789 7.789z" fill="#faf7f8"/></g></g></svg>